Coordinates
version=1
nRows=14
nColumns=36
inDegrees=yes

Units are S.I. units (second, meters, Newtons, ...)
If the header above contains a line with 'inDegrees', this indicates whether rotational values are in degrees (yes) or radians (no).

endheader
time	pelvis_tilt	pelvis_list	pelvis_rotation	pelvis_tx	pelvis_ty	pelvis_tz	hip_flexion_r	hip_adduction_r	hip_rotation_r	knee_angle_r	knee_angle_r_beta	ankle_angle_r	subtalar_angle_r	mtp_angle_r	hip_flexion_l	hip_adduction_l	hip_rotation_l	knee_angle_l	knee_angle_l_beta	ankle_angle_l	subtalar_angle_l	mtp_angle_l	lumbar_extension	lumbar_bending	lumbar_rotation	arm_flex_r	arm_add_r	arm_rot_r	elbow_flex_r	pro_sup_r	arm_flex_l	arm_add_l	arm_rot_l	elbow_flex_l	pro_sup_l
      3.23333330	     -8.24419892	      0.27890302	     -0.71735832	      0.16888694	      0.92606954	     -0.13304975	     12.37983721	     -6.22234395	      5.08234279	     16.36104729	      0.28555414	      0.62188281	     -8.99399965	     -7.49999987	     10.54795767	      2.18866145	      3.47077698	     12.10096243	      0.21120164	      6.57083161	     -4.46262651	     -7.49999987	     -1.98548142	     -1.96506176	      1.65528890	     43.24473428	     15.98639679	     71.10206272	    130.70121413	     92.46165145	     57.73289645	     12.81094405	     62.03985114	    122.53006119	     67.71503848
      3.25000000	     -8.37244367	      0.27217407	     -0.64422804	      0.17131626	      0.92363121	     -0.13176776	     11.86825553	     -6.19588636	      4.94744962	     15.36726828	      0.26820943	      1.18080933	     -8.60572260	     -7.49999987	     10.49791523	      2.11655588	      3.55169934	     12.02349916	      0.20984965	      6.97901582	     -4.26033547	     -7.49999987	     -1.88547253	     -2.07603046	      2.00367402	     43.37757768	     15.86783226	     71.35856091	    130.97326548	     92.38774775	     57.56115756	     12.99008529	     61.87113300	    122.23322165	     67.42237034
      3.26666670	     -8.80733805	      0.37117608	     -0.86316760	      0.17052729	      0.92330109	     -0.13105202	     11.95736349	     -6.21097993	      5.10364852	     14.64511566	      0.25560549	      1.75884254	     -8.40924295	     -7.49999987	     10.92339804	      2.15295990	      3.46869109	     12.14150634	      0.21190926	      7.36223123	     -4.40173634	     -7.49999987	     -1.51342355	     -2.23898459	      2.28585836	     43.21888526	     15.77218059	     71.51768094	    131.25498726	     91.89898466	     56.96225522	     12.94652900	     61.46630092	    122.03942326	     67.13551297
      3.28333330	     -9.14301259	      0.48382161	     -1.24748682	      0.16916938	      0.92454440	     -0.13076835	     12.11573717	     -6.25032138	      5.19085514	     13.85996160	      0.24190196	      2.15302209	     -8.12436461	     -7.49999987	     11.31674458	      2.18433352	      3.13708009	     12.27789993	      0.21428978	      7.40699312	     -4.59868809	     -7.49999987	     -1.41273617	     -2.30257068	      2.51625561	     42.98291693	     15.74841807	     71.55500320	    131.08140516	     91.53263335	     56.54445693	     13.08949000	     61.07951141	    122.03380034	     66.91756827
      3.30000000	     -9.26402483	      0.55041111	     -1.51964120	      0.16742980	      0.92392232	     -0.13017186	     11.96999265	     -6.25187064	      4.92858449	     13.26251007	      0.23147447	      2.66786626	     -7.17164832	     -7.49999987	     11.62365251	      2.16511990	      2.65766947	     12.50906755	      0.21832442	      7.49530572	     -4.42728933	     -7.49999987	     -1.65900324	     -2.28489566	      2.45993661	     43.39925784	     15.97650133	     71.97767675	    130.94724491	     90.40617367	     56.57599304	     13.03167494	     60.58079113	    122.30498814	     66.58124748
      3.31666670	     -9.56199785	      0.65464688	     -1.88153558	      0.16621871	      0.92520393	     -0.12968345	     12.08346708	     -6.27436276	      4.81157930	     12.74088382	      0.22237037	      2.86712658	     -6.52913250	     -7.49999987	     12.13524259	      2.20215449	      2.32363767	     12.73834677	      0.22232609	      7.20758693	     -4.82290799	     -7.49999987	     -1.64467049	     -2.22896351	      2.49006084	     43.43394308	     16.11756329	     71.66371027	    130.67250845	     95.31646231	     56.23961893	     13.11287902	     59.86677638	    122.69872935	     68.71018634
      3.33333330	     -9.67977993	      0.71592164	     -2.27923468	      0.16678186	      0.92517711	     -0.12786105	     11.95102136	     -6.19154971	      4.88391882	     12.22107192	      0.21329794	      2.85863880	     -5.86636114	     -7.49999987	     12.44625810	      2.13455526	      1.88791860	     12.99316762	      0.22677356	      6.98047913	     -5.00172998	     -7.49999987	     -1.62587502	     -2.18878284	      2.40336450	     43.78636500	     16.33970163	     71.80593378	    130.69436613	     95.01685363	     56.11949655	     13.05042766	     59.42683593	    122.98591319	     68.49810037
      3.35000000	     -9.85410122	      0.79386462	     -2.51691518	      0.16900309	      0.92264343	     -0.12633237	     11.86553957	     -6.09386562	      4.93392609	     11.89488453	      0.20760490	      3.05295555	     -5.45177806	     -7.49999987	     12.73438305	      2.09208188	      1.53909065	     13.22403138	      0.23080289	      6.99436264	     -5.21132565	     -7.49999987	     -1.36341203	     -2.13299979	      2.45560967	     44.19935021	     16.41545015	     71.64876226	    130.70197861	     94.65419306	     56.09089696	     13.02361842	     58.88789931	    123.11415064	     68.30356414
      3.36666670	    -10.05818375	      0.88994178	     -2.81650419	      0.16949853	      0.92364343	     -0.12575962	     11.80800304	     -6.04886401	      4.95473377	     11.55510217	      0.20167458	      3.15192393	     -4.95141746	     -7.49999987	     13.02097684	      2.07125719	      1.20333714	     13.42416713	      0.23429592	      7.06287396	     -5.25944913	     -7.49999987	     -1.08527704	     -1.96322269	      2.11195543	     44.35244801	     16.74142792	     72.12573416	    130.62823392	     94.33360260	     56.14476878	     12.47972628	     57.99496192	    122.76744237	     68.17193520
      3.38333330	    -10.22999353	      0.99251237	     -3.04225112	      0.17132485	      0.92214949	     -0.12357001	     11.64266488	     -5.96074900	      4.95093879	     11.20850820	      0.19562537	      3.40293337	     -4.74110389	     -7.49999987	     13.22888616	      2.04364276	      0.99931169	     13.62820325	      0.23785702	      7.20240005	     -5.44928573	     -7.49999987	     -0.58641053	     -1.86996570	      2.18358479	     44.62158805	     16.84020460	     72.28154039	    130.55663276	     93.69140130	     56.12113587	     12.30679955	     57.39956538	    122.50874075	     67.89877599
      3.40000000	    -10.40822272	      1.09051876	     -3.15907599	      0.17301098	      0.92034783	     -0.12193986	     11.45676604	     -5.91734785	      4.85255486	     10.67525838	      0.18631841	      3.40070477	     -4.56007989	     -7.49999987	     13.34486132	      2.02277953	      0.90880184	     13.66198392	      0.23844660	      7.33630138	     -5.47705424	     -7.49999987	     -0.06124988	     -1.76290946	      2.34558660	     45.24772998	     16.68356600	     72.27376206	    130.50111616	     92.84051968	     56.04252287	     12.27407217	     57.18398201	    122.66346329	     67.56389445
      3.41666670	    -10.51689435	      1.16842491	     -3.26084379	      0.17566844	      0.91887720	     -0.11975850	     11.17556035	     -5.82220430	      4.79681613	     10.14105023	      0.17699472	      3.72427459	     -4.51170960	     -7.49999987	     13.34122460	      1.96673441	      0.92824425	     13.78666306	      0.24062266	      7.52229701	     -5.64113137	     -7.49999987	      0.49586887	     -1.64780347	      2.54691195	     45.89684056	     16.53263000	     72.10445189	    130.49738858	     92.19084193	     56.13780057	     12.50551196	     57.15405705	    122.77154559	     67.25886336
      3.43333330	    -10.64726407	      1.23819284	     -3.08676861	      0.17728807	      0.91680452	     -0.11750146	     10.83201684	     -5.74907276	      4.55816325	      9.58910526	      0.16736146	      3.96208354	     -4.66459503	     -7.49999987	     13.33796919	      1.92255327	      1.04058315	     13.82297498	      0.24125643	      7.72032406	     -5.54365536	     -7.49999987	      1.12907390	     -1.48413326	      2.53079887	     46.16425874	     16.46849268	     72.13655843	    130.57590751	     91.76478929	     56.24537310	     12.57925526	     57.17311255	    122.81134540	     67.08455255
      3.45000000	    -11.00625339	      1.36761540	     -3.11247346	      0.17603473	      0.91723978	     -0.11648432	     10.95822044	     -5.70727547	      4.40999659	      9.15946089	      0.15986275	      4.11218617	     -4.88957172	     -7.49999987	     13.69602394	      1.93808236	      0.97968121	     13.86805562	      0.24204323	      7.83342229	     -5.76334921	     -7.49999987	      2.05131936	     -1.44294433	      2.53044672	     46.17234940	     16.56431564	     71.61326412	    130.41709985	     91.20833575	     56.30771161	     12.73416269	     56.73245826	    122.43625790	     66.81849308
